<svg width="878" height="776" viewBox="0 0 878 776" fill="none" xmlns="http://www.w3.org/2000/svg">
<g clip-path="url(#clip0_4305_2241)">
<g clip-path="url(#clip1_4305_2241)">
<path d="M491.267 490.676H271.793C174.988 490.676 96.5176 412.131 96.5176 315.242C96.5176 234.986 150.361 167.315 223.873 146.453C216.034 169.227 212.044 193.15 212.069 217.237C212.069 327.998 294.88 419.383 401.907 432.775C424.98 460.877 456.205 481.11 491.267 490.676V490.676Z" fill="#BBE8FF"/>
<path d="M632.591 490.676H491.267C456.207 481.107 424.983 460.872 401.913 432.769C294.88 419.37 212.069 327.985 212.069 217.237C212.04 193.155 216.023 169.236 223.855 146.465C263.18 135.314 305.161 138.25 342.555 154.766C379.949 171.282 410.411 200.342 428.687 236.934L519.519 414.765C519.517 414.775 519.517 414.785 519.519 414.795C529.867 436.325 545.779 454.692 565.608 467.993C585.436 481.294 608.458 489.044 632.288 490.44" fill="#99D3FF"/>
<path d="M646.154 217.237C646.154 218.979 646.154 220.708 646.087 222.437C644.178 222.352 642.262 222.316 640.328 222.316C566.283 222.316 506.255 282.39 506.255 356.499C506.229 376.671 510.767 396.586 519.526 414.753L428.687 236.934C410.409 200.344 379.948 171.285 342.555 154.767C305.162 138.249 263.182 135.309 223.855 146.453C253.175 61.2329 333.998 0 429.112 0C536.848 0 626.25 78.5694 643.244 181.581C645.187 193.367 646.16 205.292 646.154 217.237Z" fill="#66BAFF"/>
<path d="M646.087 222.425C644.08 307.888 592.77 381.123 519.526 414.783C510.766 396.617 506.229 376.701 506.254 356.53C506.254 282.426 566.276 222.346 640.327 222.346C642.261 222.304 644.177 222.34 646.087 222.425Z" fill="#76CCFF"/>
<path d="M776.826 529.743C735.89 537.413 677.069 530.489 632.319 490.458C608.49 489.062 585.468 481.312 565.639 468.011C545.811 454.71 529.898 436.343 519.551 414.813C519.548 414.803 519.548 414.793 519.551 414.783C592.796 381.142 644.105 307.906 646.112 222.425C660.274 223.013 674.252 225.854 687.521 230.842C738.291 249.944 774.425 298.992 774.425 356.487C774.438 377.899 769.326 399.002 759.516 418.029C749.706 437.057 735.484 453.456 718.041 465.852C720.751 471.981 736.484 503.68 777.966 518.784C783.265 520.713 782.374 528.687 776.826 529.743Z" fill="#BADEF9"/>
</g>
</g>
<path d="M163.684 667.389V760.799C148.432 768.691 127.017 775.44 97.9769 775.44C40.4811 775.44 0 737.949 0 677.049C0 615.557 42.8293 576.903 97.9769 576.903C126.721 576.903 147.258 584.519 159.873 593.304C158.11 604.725 152.536 615.265 142.565 621.122C130.243 612.925 116.751 608.533 97.6844 608.533C63.0699 608.533 35.7886 632.838 35.7886 676.761C35.7886 717.46 56.3217 744.405 98.2497 744.405C112.039 744.405 122.598 742.641 130.813 740.009V698.431H95.3204C94.1718 693.237 93.5821 687.936 93.5612 682.618C93.5826 677.492 94.1726 672.385 95.3204 667.389H163.684Z" fill="#325E80"/>
<path d="M286.172 631.015C294.734 632.996 301.674 636.19 306.989 640.597C312.314 645.017 316.253 650.872 318.339 657.464C320.598 664.304 321.726 672.579 321.723 682.29V753.269C321.723 760.635 319.11 764.953 313.884 766.221C306.673 768.197 298.108 769.68 288.188 770.672C278.268 771.664 268.536 772.16 258.993 772.16C247.457 772.16 237.726 771.305 229.798 769.595C221.871 767.885 215.472 765.185 210.601 761.497C205.877 757.977 202.232 753.21 200.078 747.732C197.914 742.247 196.833 735.726 196.836 728.17C196.836 713.595 201.252 702.62 210.083 695.246C218.915 687.871 231.349 684.188 247.386 684.196C255.144 684.179 262.885 684.902 270.505 686.355C277.982 687.791 284.605 689.764 290.374 692.274V686.611C290.374 680.313 289.834 675.051 288.753 670.826C287.672 666.601 285.6 663.18 282.535 660.565C279.467 657.956 275.187 656.114 269.694 655.04C264.202 653.967 257.037 653.428 248.201 653.422C242.073 653.422 236.034 653.603 230.083 653.963C224.997 654.212 219.937 654.842 214.946 655.849C211.883 656.391 210.352 655.313 210.352 652.613V639.113C210.352 636.232 211.794 634.342 214.677 633.442C218.82 632.006 224.498 630.747 231.712 629.666C239.32 628.559 246.999 628.018 254.688 628.048C267.117 628.042 277.611 629.031 286.172 631.015ZM276.976 746.248C281.474 745.901 285.944 745.269 290.362 744.358V711.702C281.712 710.084 271.259 709.275 259.001 709.275C253.055 709.275 248.099 709.634 244.133 710.352C240.166 711.071 237.012 712.195 234.669 713.727C232.451 715.111 230.707 717.135 229.668 719.532C228.679 721.868 228.185 724.746 228.185 728.166C228.185 731.586 228.725 734.465 229.806 736.801C230.889 739.14 232.734 741.073 235.341 742.602C237.947 744.13 241.553 745.21 246.157 745.842C250.753 746.468 256.566 746.782 263.594 746.785C267.922 746.788 272.383 746.61 276.976 746.252V746.248Z" fill="#325E80"/>
<path d="M346.574 651.256V634.523C346.574 631.643 348.016 630.204 350.899 630.206H373.626V597.282C373.626 594.404 374.977 592.965 377.678 592.965H400.658C403.544 592.965 404.986 594.404 404.983 597.282V630.206H441.211C444.091 630.206 445.533 631.645 445.535 634.523V651.256C445.535 654.134 444.094 655.573 441.211 655.573H404.983V725.471C404.983 732.837 406.29 738.231 408.905 741.651C411.519 745.071 416.79 746.781 424.718 746.781C428.318 746.781 431.788 746.69 435.127 746.509C438.466 746.327 441.393 746.058 443.907 745.7C446.434 745.345 447.697 746.426 447.694 748.944V763.794C447.694 766.133 446.522 767.663 444.18 768.383C440.195 769.775 436.07 770.726 431.877 771.217C426.992 771.854 422.07 772.17 417.143 772.164C401.647 772.164 390.518 768.161 383.758 760.155C376.998 752.15 373.621 741.218 373.626 727.361V655.573H350.915C348.021 655.573 346.574 654.134 346.574 651.256Z" fill="#325E80"/>
<path d="M504.44 769.997H481.46C478.756 769.997 477.404 768.649 477.404 765.952V577.317C477.404 574.439 478.756 573 481.46 573H504.44C507.321 573 508.763 574.439 508.765 577.317V634.796C514.646 632.638 520.708 631.011 526.879 629.934C533.745 628.674 540.712 628.043 547.693 628.048C555.805 628.048 563.105 628.992 569.594 630.881C575.803 632.613 581.505 635.807 586.221 640.194C590.809 644.512 594.323 650.133 596.76 657.057C599.198 663.982 600.414 672.573 600.409 682.831V765.952C600.409 768.652 599.058 770 596.357 769.997H573.377C570.496 769.997 569.054 768.649 569.048 765.952V684.989C569.048 673.655 566.617 665.56 561.754 660.703C556.892 655.847 548.327 653.417 536.058 653.415C531.375 653.415 526.689 653.504 522.001 653.683C517.312 653.862 512.896 654.222 508.753 654.764V765.952C508.761 768.652 507.324 770 504.44 769.997Z" fill="#325E80"/>
<path d="M728.267 746.114C734.577 745.664 740.074 745.08 744.76 744.362C747.825 743.82 749.358 744.899 749.358 747.598V761.095C749.358 763.973 747.916 765.862 745.033 766.762C739.804 768.38 733.541 769.683 726.243 770.672C718.851 771.67 711.399 772.167 703.939 772.16C690.962 772.16 679.878 770.63 670.689 767.571C661.499 764.511 654.019 760.013 648.25 754.078C642.478 748.143 638.243 740.855 635.544 732.215C632.846 723.575 631.494 713.591 631.488 702.263V695.246C631.488 673.657 637.075 657.058 648.25 645.451C659.424 633.843 675.916 628.04 697.725 628.04C708.003 628.04 716.964 629.389 724.607 632.089C732.25 634.788 738.646 638.611 743.796 643.557C748.974 648.565 752.909 654.711 755.288 661.505C757.81 668.521 759.072 676.257 759.075 684.713C759.075 705.581 746.278 716.017 720.685 716.019H663.66C664.379 721.773 665.91 726.63 668.253 730.589C670.54 734.491 673.741 737.779 677.583 740.171C681.452 742.599 686.002 744.31 691.233 745.301C697.032 746.341 702.915 746.838 708.806 746.785C715.476 746.788 721.963 746.564 728.267 746.114ZM727.73 682.558C727.73 673.206 725.206 666.009 720.159 660.968C715.112 655.927 707.452 653.409 697.179 653.415C687.085 653.415 678.931 656.203 672.717 661.781C666.502 667.358 663.208 676.984 662.834 690.656H718.523C724.658 690.656 727.727 687.957 727.73 682.558V682.558Z" fill="#325E80"/>
<path d="M818.542 769.997H795.566C792.862 769.997 791.51 768.649 791.51 765.952V647.207C791.51 643.432 792.141 640.552 793.403 638.568C794.666 636.585 796.642 635.146 799.333 634.251C806.777 632.152 814.369 630.619 822.045 629.665C830.566 628.572 839.149 628.032 847.741 628.047C852.247 628.047 856.888 628.228 861.664 628.588C866.439 628.949 870.539 629.308 873.962 629.665C875.587 629.847 876.666 630.297 877.208 631.015C877.75 631.733 877.999 632.815 877.999 634.251V652.065C877.999 655.125 876.286 656.384 872.859 655.842C864.386 654.224 856.546 653.415 849.338 653.415C840.453 653.403 831.586 654.216 822.851 655.842V765.944C822.864 768.649 821.428 770 818.542 769.997Z" fill="#325E80"/>
<defs>
<clipPath id="clip0_4305_2241">
<rect width="685" height="531" fill="white" transform="translate(96.5)"/>
</clipPath>
<clipPath id="clip1_4305_2241">
<rect width="685" height="532.473" fill="white" transform="translate(96.5)"/>
</clipPath>
</defs>
</svg>
